<?xml version="1.0" encoding="UTF-8"?><svg xmlns="http://www.w3.org/2000/svg" xmlns:xlink="http://www.w3.org/1999/xlink" width="640" height="480"><path style="fill:#c60b1e" d="M0 0h750v500H0z" transform="scale(.85333 .96)"/><path style="fill:#ffc400" d="M0 125h750v250H0z" transform="scale(.85333 .96)"/><g style="stroke:#000;stroke-width:.38999999"><g transform="scale(.85333 .96)"><g style="stroke-width:.25999999"><path d="M167.99 222.24s-.51 0-.79-.16-1.13-.96-1.13-.96l-.68-.49-.62-.85s-.73-1.18-.4-2.09c.34-.91.91-1.23 1.42-1.5.51-.26 1.58-.59 1.58-.59s.85-.37 1.13-.42c.28-.06 1.3-.32 1.3-.32s.28-.16.56-.27c.29-.11.68-.11.91-.16.22-.06.79-.24 1.13-.26.52-.02 1.36.1 1.64.1.28 0 1.24.05 1.64.05.39 0 1.8-.11 2.2-.11.39 0 .68-.05 1.13 0 .45.06 1.24.32 1.47.43.23.11 1.58.59 2.09.75.51.16 1.75.37 2.32.64.56.27.91.72 1.19 1.1.28.37.34.78.45 1.05.11.26.11.84 0 1.11-.11.26-.51.81-.51.81l-.62 1.02-.79.64s-.57.54-1.02.48c-.45-.04-5.03-.86-7.97-.86-2.94 0-7.64.86-7.64.86h.01z" style="fill:#ad1519;stroke-linejoin:round"/><g style="fill:#c8b100"><ellipse ry="2.5" rx="1.38" cy="215.68" cx="175.66"/><ellipse ry="2.3" rx=".64" cy="215.68" cx="175.68"/><ellipse ry=".87" rx=".93" cy="213.04" cx="175.68" style="stroke:none" stroke="none"/><path d="M176.96 212.74v.58h-2.53v-.58h.94v-1.32h-.62v-.57h.62v-.57h.6v.57h.62v.57h-.62v1.32h.99" style="stroke-width:.30000001"/><path d="M175.94 212.2a.93.87 0 1 1-.5 0" style="fill:none"/><path d="M175.68 222.08h-4.81l-.11-1.18-.23-1.23-.23-1.53c-1.33-1.75-2.55-2.9-2.96-2.65.1-.32.22-.56.47-.71 1.18-.7 3.61.98 5.44 3.74.16.25.32.5.46.75h3.97c.14-.25.3-.5.46-.75 1.82-2.76 4.26-4.44 5.43-3.74.26.15.37.39.47.71-.41-.24-1.62.9-2.96 2.65l-.23 1.53-.23 1.23-.1 1.18h-4.84z"/><path d="M167.55 215.44c.91-.53 3.02 1.14 4.73 3.74m11.55-3.74c-.91-.53-3.01 1.14-4.73 3.74" style="fill:none"/></g><g id="a" style="fill:#c8b100"><path d="M168.58 224.25c-.2-.57-.58-1.08-.58-1.08 1.95-.57 4.66-.93 7.67-.94 3.01.01 5.75.37 7.69.94 0 0-.22.38-.52.91-.17.3-.39.81-.38.81-1.75-.54-4.02-.81-6.8-.82-2.79.01-5.46.35-6.86.86.02 0-.1-.32-.23-.68h.01"/><path d="M175.67 226.73c2.43-.01 5.11-.38 6.1-.63.66-.2 1.05-.49.98-.84-.04-.16-.18-.3-.37-.38-1.46-.47-4.07-.8-6.71-.8-2.63 0-5.27.33-6.72.8-.19.08-.33.22-.37.38-.07.35.32.64.98.84.99.25 3.68.62 6.11.63zM183.48 222.08l-.59-.53s-.57.34-1.28.24c-.7-.11-.93-.97-.93-.97s-.79.67-1.44.62c-.65-.06-1.07-.62-1.07-.62s-.71.51-1.33.46c-.62-.06-1.21-.83-1.21-.83s-.63.8-1.25.86c-.62.05-1.13-.54-1.13-.54s-.28.59-1.07.72-1.47-.62-1.47-.62-.45.73-.99.92c-.54.18-1.24-.27-1.24-.27s-.12.27-.2.43c-.08.16-.31.19-.31.19l.18.47c1.93-.56 4.56-.91 7.53-.91 2.97 0 5.67.35 7.61.92l.2-.54h-.01z"/><path d="m175.69 219.49.28.05c-.05.12-.06.24-.06.38 0 .58.5 1.05 1.12 1.05.49 0 .91-.31 1.06-.73.01.01.11-.38.15-.38.03 0 .03.41.05.41.07.53.55.89 1.1.89.62 0 1.11-.47 1.11-1.06 0-.04 0-.08-.01-.12l.35-.35.19.44c-.07.14-.1.29-.1.46 0 .56.47 1.01 1.06 1.01.37 0 .69-.18.88-.45l.23-.29v.36c0 .34.14.66.49.71 0 0 .38.03.91-.38.52-.41.8-.75.8-.75l.03.42s-.51.84-.97 1.1c-.25.15-.64.31-.95.25-.32-.05-.55-.31-.67-.61-.23.14-.51.22-.8.22-.63 0-1.2-.35-1.42-.86-.29.31-.69.5-1.16.5-.51 0-.97-.23-1.26-.58-.28.27-.67.43-1.09.43-.55 0-1.05-.28-1.33-.69-.29.41-.78.69-1.34.69-.42 0-.81-.16-1.09-.43-.29.35-.75.58-1.25.58-.48 0-.88-.19-1.17-.5-.22.51-.79.86-1.42.86-.29 0-.56-.08-.79-.22-.12.3-.35.56-.68.61-.3.06-.69-.1-.94-.25-.47-.26-1.02-1.1-1.02-1.1l.07-.42s.29.34.81.75.91.38.91.38c.34-.05.49-.37.49-.71v-.36l.22.29c.19.27.51.45.88.45.59 0 1.06-.45 1.06-1.01a.89.89 0 0 0-.1-.46l.19-.44.35.35c-.01.04-.01.08-.01.12 0 .59.49 1.06 1.11 1.06.55 0 1.03-.36 1.11-.89.01 0 .01-.41.04-.41.05 0 .14.39.16.38.14.42.56.73 1.06.73.61 0 1.11-.47 1.11-1.05 0-.14 0-.26-.05-.38l.29-.05h.01z"/><path d="M175.67 222.23c-3.01.01-5.72.37-7.67.94-.13.04-.29-.06-.33-.17-.04-.13.05-.28.18-.32 1.95-.6 4.73-.98 7.82-.98s5.88.38 7.83.98c.13.04.22.19.18.32-.04.11-.2.21-.33.17-1.95-.57-4.67-.93-7.68-.94z" style="stroke-linejoin:round"/><path d="M165.43 221c-.01.01-.38-.48-.65-.73-.2-.18-.68-.33-.68-.33 0-.08.28-.28.58-.28.18 0 .35.07.45.2l.04-.2s.24.05.35.32c.12.29.05.72.05.72s-.05.2-.14.3zM167.32 220.22l-.11.66-1.4.15-.21-.12.04-.23 1.06-.87.62.41"/><path d="M165.45 220.75c.12-.12.36-.09.53.06.18.15.24.38.12.5-.12.13-.36.1-.53-.06-.18-.15-.24-.38-.12-.5zM168.02 220.88c-.06-.18 0-.37.13-.42.14-.03.3.09.37.27.06.19 0 .38-.14.42-.13.04-.29-.08-.36-.27zM168.67 220.04l.51.48 1.22-.66.09-.21-.17-.17-1.4-.12-.25.68"/><path d="m170.08 217.76-.67.64.86 1.14.23.09.17-.18.3-1.37-.89-.32"/><path d="m172.36 219.3-.26.63-1.4-.13-.18-.16.1-.22 1.22-.64.52.52"/><ellipse ry=".47" rx=".49" cy="219.65" cx="170.51"/><path d="M172.87 219.95c-.03-.2.07-.37.21-.39.14-.02.28.13.3.33.03.19-.07.37-.21.38-.14.02-.28-.13-.3-.32zM173.78 219.24l.4.57 1.34-.42.14-.18-.15-.2-1.33-.39-.4.62"/><path d="m175.66 217.15-.86.52.64 1.38.22.14.22-.14.64-1.38-.86-.52"/><path d="m177.55 219.24-.39.57-1.34-.42-.14-.18.14-.2 1.34-.39.39.62"/><ellipse ry=".47" rx=".49" cy="219.21" cx="175.67"/><path d="M178.5 219.95c.02-.2-.08-.37-.22-.39-.14-.02-.28.13-.3.33-.02.19.07.37.21.38.14.02.28-.13.31-.32zM178.99 219.3l.26.63 1.4-.13.18-.16-.1-.22-1.22-.64-.52.52"/><path d="m181.27 217.76.67.64-.86 1.14-.23.09-.17-.18-.3-1.37.89-.32"/><path d="m182.68 220.04-.51.48-1.22-.66-.1-.21.19-.17 1.4-.12.24.68"/><ellipse ry=".47" rx=".49" cy="219.65" cx="180.85"/><path d="M183.34 220.88c.06-.18 0-.37-.13-.42-.14-.03-.3.09-.37.27-.06.19 0 .38.14.42.13.04.29-.08.36-.27zM185.73 221c.01.01.38-.48.66-.73.19-.18.67-.33.67-.33 0-.08-.28-.28-.58-.28-.18 0-.35.07-.45.2l-.04-.2s-.24.05-.36.32c-.11.29-.03.72-.03.72s.04.2.13.3zM183.84 220.22l.11.66 1.4.15.21-.12-.05-.23-1.05-.87-.62.41"/><path d="M185.74 220.75c-.11-.12-.35-.09-.53.06-.18.15-.24.38-.12.5.12.13.36.1.54-.06.18-.15.23-.38.11-.5z"/></g><g id="b" style="fill:none"><path d="m168.05 224.3.31-.5.65.13-.38.56-.58-.19" style="fill:#ad1519"/><path d="m170.85 223.81-.69.11c-.18.02-.35-.09-.38-.26a.32.32 0 0 1 .27-.35l.7-.1.71-.11c.18-.02.34.09.37.25.02.17-.1.33-.27.35l-.71.11" style="fill:#058e6e"/><ellipse ry=".41" rx=".44" cy="223.3" cx="173.19" style="fill:#fff"/><path d="M175.7 223.48h-.96c-.18 0-.33-.14-.33-.31 0-.17.14-.31.32-.31h1.96c.19 0 .33.14.33.31 0 .17-.15.31-.33.31h-.99" style="fill:#ad1519"/><ellipse ry=".41" rx=".44" cy="223.3" cx="178.16" style="fill:#fff"/><path d="m180.5 223.81.69.11c.18.02.35-.09.38-.26a.313.313 0 0 0-.27-.35l-.7-.1-.71-.11c-.18-.02-.35.09-.37.25a.3.3 0 0 0 .27.35l.71.11" style="fill:#058e6e"/><path d="m183.24 224.33-.25-.53-.67.06.32.59.6-.12" style="fill:#ad1519"/><path d="M175.66 226.16c-2.43 0-4.63-.22-6.3-.65 1.67-.43 3.87-.69 6.3-.7 2.44 0 4.65.27 6.33.7-1.68.43-3.89.65-6.33.65z" style="fill:#ad1519;stroke-linejoin:round"/><path d="M176.8 226.08v-1.16m-.58 1.2.01-1.23m-.43 1.25v-1.26" style="stroke-width:.01"/><path d="M175.44 226.15v-1.27" style="stroke-width:.02"/><path d="M175.09 226.15v-1.27" style="stroke-width:.03"/><path d="M174.77 226.15v-1.27M174.44 226.15v-1.27" style="stroke-width:.04"/><path d="M174.16 226.15v-1.27" style="stroke-width:.05"/><path d="m173.61 226.08-.01-1.15m.27 1.17v-1.21" style="stroke-width:.06"/><path d="M173.1 226.03v-1.06m.26 1.09-.01-1.13" style="stroke-width:.07"/><path d="M172.42 225.97v-.93m.23.94V225m.23 1.02V225" style="stroke-width:.08"/><path d="M172.19 225.96v-.9" style="stroke-width:.09"/><path d="M171.97 225.92v-.85" style="stroke-width:.1"/><path d="M171.73 225.89v-.78" style="stroke-width:.11"/><path d="m171.24 225.82-.01-.62m.26.66v-.7M170.99 225.77v-.55" style="stroke-width:.12"/><path d="M170.76 225.73v-.46" style="stroke-width:.13"/><path d="M170.51 225.67v-.36" style="stroke-width:.14"/><path d="M170.26 225.64v-.27" style="stroke-width:.15000001"/><path d="M169.99 225.58v-.13" style="stroke-width:.18000001"/></g></g><g id="c"><g style="fill:#005bbf"><path d="M191.28 330.68c-1.54 0-2.91-.33-3.93-.87-1-.51-2.36-.82-3.86-.82-1.51 0-2.9.32-3.91.83-1.01.53-2.4.86-3.92.86-1.54 0-2.92-.36-3.93-.9-1-.49-2.33-.79-3.79-.79-1.52 0-2.86.29-3.86.81-1.02.54-2.42.88-3.95.88v2.41c1.53 0 2.93-.35 3.95-.88 1-.52 2.34-.82 3.86-.82 1.45 0 2.79.31 3.79.8 1.01.53 2.39.9 3.93.9 1.52 0 2.91-.33 3.92-.86 1.01-.52 2.4-.84 3.91-.84 1.5 0 2.86.32 3.86.83 1.02.54 2.37.87 3.91.87l.02-2.41z"/><path d="M191.28 333.09c-1.54 0-2.91-.33-3.93-.87-1-.51-2.36-.83-3.86-.83-1.51 0-2.9.32-3.91.84-1.01.53-2.4.86-3.92.86-1.54 0-2.92-.37-3.93-.9-1-.49-2.33-.8-3.79-.8-1.52 0-2.86.3-3.86.82-1.02.53-2.42.88-3.95.88v2.41c1.53 0 2.93-.35 3.95-.88 1-.52 2.34-.82 3.86-.82 1.45 0 2.79.31 3.79.8 1.01.54 2.39.9 3.93.9 1.52 0 2.91-.34 3.92-.86 1.01-.52 2.4-.84 3.91-.84 1.5 0 2.86.32 3.86.84 1.02.53 2.37.86 3.91.86l.02-2.41" style="fill:#ccc"/><path d="M191.28 335.5c-1.54 0-2.91-.33-3.93-.86-1-.52-2.36-.84-3.86-.84-1.51 0-2.9.32-3.91.84-1.01.52-2.4.86-3.92.86-1.54 0-2.92-.36-3.93-.9-1-.49-2.33-.8-3.79-.8-1.52 0-2.86.3-3.86.82-1.02.53-2.42.88-3.95.88v2.4c1.53 0 2.93-.34 3.95-.88 1-.51 2.34-.8 3.86-.8 1.45 0 2.79.3 3.79.79 1.01.54 2.39.89 3.93.89 1.52 0 2.91-.32 3.92-.85 1.01-.52 2.4-.83 3.91-.83 1.5 0 2.86.31 3.86.82 1.02.55 2.37.86 3.91.86l.02-2.4"/><path d="M191.26 340.32c-1.54 0-2.89-.33-3.91-.87-1-.51-2.36-.82-3.86-.82-1.51 0-2.9.31-3.91.83-1.01.52-2.4.86-3.92.86-1.54 0-2.92-.37-3.93-.9-1-.5-2.33-.79-3.79-.79-1.52 0-2.86.29-3.86.81-1.02.53-2.42.88-3.95.88v-2.4c1.53 0 2.93-.36 3.95-.9 1-.51 2.34-.8 3.86-.8 1.45 0 2.79.3 3.79.79 1.01.54 2.39.89 3.93.89 1.52 0 2.91-.32 3.92-.85 1.01-.52 2.4-.83 3.91-.83 1.5 0 2.86.31 3.86.82 1.02.55 2.39.86 3.93.86l-.02 2.42" style="fill:#ccc"/><path d="M191.26 342.73c-1.54 0-2.89-.33-3.91-.86-1-.52-2.36-.84-3.86-.84-1.51 0-2.9.32-3.91.84-1.01.52-2.4.86-3.92.86-1.54 0-2.92-.37-3.93-.9-1-.5-2.33-.8-3.79-.8-1.52 0-2.86.3-3.86.82-1.02.53-2.42.88-3.95.88v-2.39c1.53 0 2.93-.37 3.95-.9 1-.52 2.34-.81 3.86-.81 1.45 0 2.79.3 3.79.79 1.01.53 2.39.9 3.93.9 1.52 0 2.91-.34 3.92-.86 1.01-.52 2.4-.83 3.91-.83 1.5 0 2.86.31 3.86.82 1.02.54 2.38.87 3.93.87l-.02 2.41z"/></g><g style="fill:#c8b100"><path d="M166.92 320.78c.05.21.13.4.13.62 0 1.46-1.27 2.63-2.81 2.63h22.94c-1.55 0-2.81-1.17-2.81-2.63 0-.21.04-.41.09-.62-.13.05-.29.06-.44.06h-16.69c-.13 0-.29-.02-.41-.06z" style="stroke-linejoin:round"/><path d="M167.33 319.27h16.69c.57 0 1.02.35 1.02.78 0 .43-.45.79-1.02.79h-16.69c-.56 0-1.02-.36-1.02-.79 0-.43.46-.78 1.02-.78zM164.27 329.86h22.87v-5.83h-22.87v5.83z"/></g><path d="M167.55 318.32h16.25v-79.63h-16.25v79.63z" style="fill:#ccc"/><path d="M179.13 238.8v79.46m1.83-79.46v79.46" style="fill:none"/><g style="fill:#c8b100"><path d="M164.58 232.37h22.29v-5.84h-22.29v5.84z"/><path d="M166.92 236.26a.91.91 0 0 1 .41-.07h16.69c.17 0 .32.03.46.08-.58-.19-.99-.71-.99-1.32 0-.61.45-1.14 1.03-1.33-.14.04-.33.08-.49.08h-16.7c-.17 0-.33-.01-.47-.06l.09.02c.6.18.94.71.94 1.29 0 .56-.38 1.13-.97 1.31z" style="stroke-linejoin:round"/><path d="M167.33 236.19h16.69c.57 0 1.02.35 1.02.78 0 .44-.45.79-1.02.79h-16.69c-.56 0-1.02-.35-1.02-.79 0-.43.46-.78 1.02-.78zM167.33 232.37h16.7c.57 0 1.03.3 1.03.66 0 .37-.46.67-1.03.67h-16.7c-.56 0-1.02-.3-1.02-.67 0-.36.46-.66 1.02-.66z"/></g></g><g id="d" style="fill:#ad1519"><path d="M162.48 298.62c-2.26 1.3-3.8 2.64-3.55 3.31.12.61.84 1.07 1.87 1.75 1.62 1.13 2.6 3.14 1.83 4.07 1.34-1.08 2.19-2.69 2.19-4.49 0-1.87-.9-3.56-2.34-4.64z"/><path d="M200.4 268.47c-3.54-1.46-9.57-2.55-16.49-2.78-2.39.02-5.04.25-7.79.7-9.72 1.63-17.13 5.51-16.54 8.67.01.06.04.2.05.26 0 0-3.64-8.21-3.7-8.52-.65-3.51 7.56-7.82 18.35-9.62 3.39-.57 6.69-.79 9.56-.76 6.9 0 12.9.89 16.52 2.23l.04 9.82" style="stroke-linejoin:round"/><path d="M167.52 278.47c-4.51-.32-7.58-1.53-7.94-3.41-.28-1.5 1.25-3.17 3.97-4.68 1.21.14 2.58.3 4 .3l-.03 7.79M183.83 272.38c2.82.43 4.93 1.13 5.98 1.99l.1.17c.5 1.03-1.97 3.22-6.11 5.67l.03-7.83"/><path d="M157.42 293.83c-.43-1.28 3.97-3.86 10.18-6.14 2.84-1.01 5.18-2.07 8.09-3.35 8.63-3.82 15-8.2 14.22-9.79l-.09-.17c.46.38 1.18 8.24 1.18 8.24.78 1.46-5.05 5.78-13 9.58-2.54 1.22-7.91 3.2-10.44 4.09-4.54 1.57-9.04 4.54-8.63 5.64l-1.51-8.09v-.01z" style="stroke-linejoin:round"/></g><g style="stroke-width:.25999999"><path d="M324.85 220.42s-.74.78-1.28.89c-.53.1-1.21-.49-1.21-.49s-.48.51-1.08.64c-.59.14-1.41-.66-1.41-.66s-.57.8-1.07.99c-.51.18-1.13-.24-1.13-.24s-.23.39-.65.61c-.18.09-.48-.05-.48-.05l-.6-.38-.68-.72-.62-.24s-.28-.91-.31-1.07c-.02-.16-.08-.57-.08-.57-.13-.65.87-1.4 2.3-1.72.82-.19 1.54-.18 2.06-.02.57-.48 1.78-.82 3.2-.82 1.29 0 2.42.27 3.04.7.61-.43 1.74-.7 3.03-.7 1.42 0 2.62.34 3.19.82.53-.16 1.24-.17 2.07.02 1.42.32 2.43 1.07 2.3 1.72 0 0-.06.41-.08.57-.03.16-.32 1.07-.32 1.07l-.62.24-.68.72-.58.38s-.3.14-.48.05c-.43-.21-.66-.61-.66-.61s-.62.42-1.13.24c-.51-.19-1.07-.99-1.07-.99s-.82.8-1.42.66c-.59-.13-1.07-.64-1.07-.64s-.68.59-1.21.49c-.54-.11-1.27-.89-1.27-.89z" style="fill:#ad1519;stroke-width:.27000001"/><g style="fill:#c8b100"><ellipse ry="1.96" rx="1.38" cy="216.2" cx="324.82"/><ellipse ry="1.81" rx=".63" cy="216.2" cx="324.85"/><ellipse ry=".88" rx=".93" cy="213.95" cx="324.84" style="stroke:none" stroke="none"/><path d="M326.13 213.64v.58h-2.53v-.58h.94v-1.3h-.62v-.58h.62v-.58h.61v.58h.61v.58h-.61v1.3h.98" style="stroke-width:.30000001"/><path d="M325.11 213.12a.93.88 0 1 1-.51-.01" style="fill:none"/></g><g style="fill:none;stroke-width:.20999999"><path d="M314.41 219.99c-.13-.33-.22-.7-.22-1.08 0-1.59 1.26-2.88 2.83-2.88.5 0 .96.13 1.37.37" style="stroke-width:.25999999;stroke-linecap:round"/><path d="M319.48 217.93c-.15-.26-.29-.54-.29-.84 0-1.15 1.19-2.08 2.64-2.08.62 0 1.2.17 1.65.45M330.17 217.96c.15-.26.25-.57.25-.87 0-1.15-1.18-2.08-2.64-2.08-.62 0-1.19.17-1.64.45" style="stroke-width:.25999999"/><path d="M335.21 219.99c.13-.33.21-.7.21-1.08 0-1.59-1.26-2.88-2.82-2.88-.5 0-.97.13-1.38.37" style="stroke-width:.25999999;stroke-linecap:round"/><ellipse ry=".43" rx=".45" cy="218.68" cx="313.57"/><ellipse ry=".43" rx=".45" cy="217.1" cx="313.74"/><ellipse ry=".43" rx=".45" cy="215.9" cx="314.76"/><ellipse ry=".43" rx=".45" cy="215.25" cx="316.11"/><ellipse ry=".43" rx=".45" cy="215.31" cx="317.55"/><ellipse ry=".43" rx=".45" cy="217.08" cx="318.43" style="fill:#fff"/><ellipse ry=".43" rx=".45" cy="215.58" cx="318.68"/><ellipse ry=".43" rx=".45" cy="214.64" cx="319.81"/><ellipse ry=".43" rx=".45" cy="214.19" cx="321.23"/><ellipse ry=".43" rx=".45" cy="214.24" cx="322.67"/><ellipse ry=".43" rx=".45" cy="214.24" cx="326.94"/><ellipse ry=".43" rx=".45" cy="214.19" cx="328.39"/><ellipse ry=".43" rx=".45" cy="214.64" cx="329.8"/><ellipse ry=".43" rx=".45" cy="215.58" cx="330.93"/><ellipse ry=".43" rx=".45" cy="217.08" cx="331.18" style="fill:#fff"/><ellipse ry=".43" rx=".45" cy="215.31" cx="332.06"/><ellipse ry=".43" rx=".45" cy="215.25" cx="333.51"/><ellipse ry=".43" rx=".45" cy="215.9" cx="334.86"/><ellipse ry=".43" rx=".45" cy="217.1" cx="335.88"/><ellipse ry=".43" rx=".45" cy="218.68" cx="336.05"/></g><use x="149.17" xlink:href="#a" width="100%" height="100%"/><use x="149.17" xlink:href="#b" width="100%" height="100%"/></g><use x="149.17" xlink:href="#c" width="100%" height="100%"/><use transform="matrix(-1 0 0 1 500.57 0)" xlink:href="#d" width="100%" height="100%"/><g style="fill:#c8b100;stroke:none"><path d="M166.42 264.65c1.99-.72 3.29-1.58 2.66-3.14-.41-1-1.43-1.19-2.97-.63l-2.71.99 2.44 6.03c.27-.12.54-.24.81-.34.28-.1.57-.18.85-.26l-1.08-2.64v-.01zm-1.18-2.91.69-.25c.57-.21 1.21.1 1.5.8.21.53.16 1.13-.5 1.55-.21.13-.46.23-.7.33l-.99-2.43M172.78 259.22c-.29.08-.57.16-.86.22-.29.05-.59.09-.88.12l1.41 6.28 4.38-.88c-.05-.12-.12-.26-.14-.38-.03-.14-.03-.28-.04-.41-.77.22-1.61.46-2.61.66l-1.26-5.61M181.56 264.63c.82-2.28 1.82-4.46 2.81-6.67-.18.03-.36.06-.54.07-.18.01-.37.01-.54 0-.53 1.61-1.18 3.21-1.87 4.8-.82-1.51-1.73-2.99-2.43-4.51-.34.04-.69.09-1.03.12-.34.02-.7.01-1.04.02 1.26 2.06 2.48 4.11 3.64 6.23.16-.03.32-.06.5-.08.16-.01.33.01.5.02M190.72 259.8c.15-.31.31-.6.48-.89-.24-.22-.96-.55-1.81-.63-1.79-.18-2.81.61-2.93 1.69-.26 2.26 3.31 2.07 3.14 3.57-.07.64-.75.9-1.48.83-.81-.08-1.41-.53-1.51-1.19l-.22-.02c-.12.39-.29.77-.48 1.15.53.34 1.21.53 1.85.59 1.83.19 3.22-.54 3.35-1.74.23-2.15-3.37-2.27-3.23-3.54.06-.53.47-.88 1.4-.79.67.07 1.08.43 1.26.95l.18.02M310.3 264.98c.62-2.33 1.41-4.58 2.19-6.87-.17.05-.35.09-.53.11-.17.03-.36.04-.54.05-.37 1.64-.88 3.29-1.42 4.94-.96-1.44-2-2.84-2.83-4.3-.34.07-.68.15-1.02.2-.34.05-.69.07-1.04.11 1.45 1.94 2.85 3.89 4.2 5.91.16-.04.32-.1.5-.12.16-.02.33-.02.49-.03M316.48 258.16c-.29.01-.59.04-.88.03-.3 0-.6-.04-.89-.06l-.12 6.41 4.49.08c-.03-.13-.06-.28-.06-.41 0-.13.04-.27.07-.4-.81.05-1.68.1-2.71.08l.1-5.73M323.52 259.21c.72.06 1.41.19 2.1.31-.01-.13-.03-.27-.02-.41.01-.13.06-.26.1-.39l-6.07-.5c.01.14.03.27.02.4-.01.14-.06.27-.1.4.62-.02 1.37-.02 2.21.05l-.53 5.77c.29 0 .59 0 .88.03.3.02.59.07.88.11l.53-5.77M326.01 265.53c.29.05.59.09.88.15.28.06.57.15.85.23l.72-2.94.08.01c.16.41.38.9.49 1.19l.9 2.22c.36.06.71.11 1.05.18.36.08.7.18 1.04.28l-.31-.67c-.48-1-.99-2.01-1.41-3.02 1.12.04 1.98-.36 2.2-1.26.15-.62-.1-1.11-.68-1.53-.44-.31-1.28-.47-1.83-.6l-2.44-.53-1.54 6.29m3.14-5.42c.71.16 1.59.27 1.59 1.07-.01.21-.03.35-.06.48-.23.94-.94 1.26-2.13.91l.6-2.46M337.57 267.46c-.05.69-.18 1.37-.31 2.1.3.14.61.27.9.44.3.16.57.34.86.52l.6-7.23c-.14-.06-.27-.12-.41-.19-.13-.07-.25-.15-.37-.24l-6.38 4.05c.17.08.35.16.51.25.17.09.31.19.47.28.54-.45 1.1-.82 1.74-1.3l2.39 1.31v.01zm-1.81-1.66 2.13-1.37-.25 2.4-1.88-1.03"/></g></g><path d="M249.65 182.72c6.64 0 12.56.99 16.41 2.51 2.2 1 5.16 1.73 8.4 2.17 2.47.33 4.81.39 6.85.24 2.73-.06 6.67.74 10.62 2.48 3.26 1.45 5.99 3.21 7.8 4.91l-1.57 1.4-.45 3.96-4.3 4.92-2.15 1.83-5.09 4.07-2.6.21-.79 2.25-32.91-3.86-33.02 3.86-.79-2.25-2.61-.21-5.08-4.07-2.15-1.83-4.3-4.92-.44-3.96-1.58-1.4c1.82-1.7 4.54-3.46 7.8-4.91 3.95-1.74 7.89-2.54 10.62-2.48 2.04.15 4.38.09 6.85-.24 3.24-.44 6.2-1.17 8.4-2.17 3.86-1.52 9.44-2.51 16.08-2.51z" style="fill:#ad1519;stroke-width:.25999999" transform="scale(.85333 .96)"/><g style="fill:#c8b100" transform="scale(.85333 .96)"><path d="m225.34 191.42 1.38 1.11 2.08-3.4c-2.25-1.38-3.8-3.78-3.8-6.51 0-.31.02-.61.06-.91.21-4.34 5.5-7.92 12.2-7.92 3.48 0 6.63.95 8.84 2.48.06-.67.12-1.25.21-1.86-2.43-1.42-5.6-2.28-9.05-2.28-7.71 0-13.74 4.39-14.03 9.57-.03.31-.05.61-.05.92 0 2.76 1.26 5.26 3.26 6.99l-1.1 1.81"/><path d="M225.43 191.46c-2.63-1.97-4.27-4.64-4.27-7.58 0-3.38 2.22-6.4 5.58-8.41-2.07 1.67-3.33 3.83-3.51 6.23-.03.31-.05.61-.05.92 0 2.76 1.26 5.26 3.26 6.99l-1.01 1.85"/><path d="M202.21 194.89c-1.48-1.65-2.38-3.79-2.38-6.12 0-1.41.33-2.75.91-3.95 2.13-4.38 8.82-7.57 16.76-7.57 2.16 0 4.23.23 6.14.67-.42.46-.75.97-1.08 1.48-1.59-.31-3.29-.48-5.06-.48-7.27 0-13.36 2.83-15.12 6.65a7.33 7.33 0 0 0-.73 3.2c0 2.32 1.09 4.4 2.79 5.82l-2.63 4.3-1.41-1.12 1.81-2.88z"/><path d="M204.9 180.48c-1.91 1.21-3.36 2.69-4.16 4.34-.58 1.2-.91 2.54-.91 3.95 0 2.33.9 4.47 2.38 6.12l-1.6 2.59c-1.53-1.96-2.42-4.26-2.42-6.7 0-4.2 2.67-7.87 6.71-10.3zM250.04 171.27c1.76 0 3.28 1.16 3.64 2.73.23 1.38.38 2.95.41 4.62.01.18-.01.35-.01.52 0 .2.04.41.05.61.06 3.52.56 6.62 1.27 8.52l-5.36 5.14-5.43-5.14c.72-1.9 1.22-5 1.29-8.52 0-.2.04-.41.04-.61 0-.17-.01-.34-.01-.52.03-1.67.18-3.24.41-4.62.36-1.57 1.94-2.73 3.7-2.73z"/><path d="M250.04 172.94c.91 0 1.68.58 1.87 1.39.23 1.31.37 2.8.4 4.38 0 .16-.01.32-.01.48 0 .2.03.39.04.59.05 3.32.53 6.25 1.21 8.05l-3.54 3.35-3.54-3.35c.67-1.8 1.15-4.73 1.21-8.05 0-.2.04-.39.04-.59 0-.16-.01-.32-.01-.48.03-1.58.17-3.07.4-4.38.18-.81 1.02-1.39 1.93-1.39zM274.7 191.42l-1.39 1.11-2.08-3.4c2.26-1.38 3.81-3.78 3.81-6.51 0-.31-.02-.61-.06-.91-.21-4.34-5.5-7.92-12.2-7.92-3.49 0-6.63.95-8.84 2.48-.06-.67-.12-1.25-.22-1.86 2.44-1.42 5.6-2.28 9.06-2.28 7.71 0 13.74 4.39 14.03 9.57.03.31.05.61.05.92 0 2.76-1.27 5.26-3.27 6.99l1.11 1.81"/><path d="M274.61 191.46c2.63-1.97 4.27-4.64 4.27-7.58 0-3.38-2.22-6.4-5.58-8.41 2.07 1.67 3.33 3.83 3.51 6.23.03.31.05.61.05.92 0 2.76-1.27 5.26-3.27 6.99l1.02 1.85"/><path d="M297.83 194.89c1.47-1.65 2.38-3.79 2.38-6.12 0-1.41-.33-2.75-.91-3.95-2.14-4.38-8.82-7.57-16.76-7.57-2.16 0-4.23.23-6.15.67.43.46.76.97 1.09 1.48 1.58-.31 3.29-.48 5.06-.48 7.27 0 13.35 2.83 15.11 6.65.47.97.73 2.06.73 3.2 0 2.32-1.09 4.4-2.79 5.82l2.63 4.3 1.42-1.12-1.81-2.88z"/><path d="M295.14 180.48c1.91 1.21 3.36 2.69 4.16 4.34.58 1.2.91 2.54.91 3.95 0 2.33-.91 4.47-2.38 6.12l1.6 2.59c1.53-1.96 2.41-4.26 2.41-6.7 0-4.2-2.67-7.87-6.7-10.3z"/><ellipse ry="4.2" rx="4.43" cy="167.3" cx="250.05" style="fill:#005bbf;stroke-width:.25999999"/><path d="M248.89 155.54v2.26h-2.42v2.3h2.42V166.71h-3.05c-.03.21-.22.37-.22.59 0 .58.12 1.14.35 1.64 0 .02.02.02.03.03h8.12c0-.01.02-.01.03-.03.22-.5.35-1.06.35-1.64 0-.22-.19-.38-.22-.59h-2.96v-6.61h2.42v-2.3h-2.42v-2.26h-2.43z" style="stroke-width:.25999999"/></g><g style="fill:#fff" transform="scale(.85333 .96)"><ellipse ry="1.8" rx="1.91" cy="188.94" cx="250.04"/><ellipse ry="1.8" rx="1.91" cy="185.4" cx="250.04"/><ellipse ry="1.44" rx="1.52" cy="181.6" cx="250.04"/><ellipse ry="1.04" rx="1.1" cy="178.18" cx="250.04"/><ellipse ry=".83" rx=".88" cy="175.18" cx="250.04"/><ellipse ry="1.04" rx="1.1" cy="198.67" cx="198.94"/><ellipse ry="1.04" rx="1.1" cy="196.02" cx="197.44"/><ellipse ry="1.04" rx="1.1" cy="192.94" cx="196.44"/><ellipse ry="1.04" rx="1.1" cy="189.64" cx="196.31"/><ellipse ry="1.04" rx="1.1" cy="186.4" cx="197.12"/><ellipse ry="1.04" rx="1.1" cy="183.45" cx="198.81"/><ellipse ry="1.04" rx="1.1" cy="181.02" cx="201.06"/><ellipse ry="1.04" rx="1.1" cy="179.01" cx="203.68"/><ellipse ry="1.04" rx="1.1" cy="177.36" cx="206.8"/><ellipse ry="1.04" rx="1.1" cy="176.19" cx="210.04"/><ellipse ry="1.04" rx="1.1" cy="175.54" cx="213.66"/><ellipse ry="1.04" rx="1.1" cy="175.36" cx="217.1"/><ellipse ry="1.04" rx="1.1" cy="175.48" cx="220.47"/><ellipse ry="1.04" rx="1.1" cy="190.32" cx="224.21"/><ellipse ry="1.04" rx="1.1" cy="187.65" cx="222.34"/><ellipse ry="1.04" rx="1.1" cy="184.75" cx="221.35"/><ellipse ry="1.04" rx="1.1" cy="181.57" cx="221.47"/><ellipse ry="1.04" rx="1.1" cy="178.37" cx="222.16"/><ellipse ry="1.04" rx="1.1" cy="175.48" cx="223.84"/><ellipse ry="1.04" rx="1.1" cy="173.47" cx="226.4"/><ellipse ry="1.04" rx="1.1" cy="171.81" cx="229.39"/><ellipse ry="1.04" rx="1.1" cy="170.82" cx="232.7"/><ellipse ry="1.04" rx="1.1" cy="170.23" cx="236.13"/><ellipse ry="1.04" rx="1.1" cy="170.28" cx="239.5"/><ellipse ry="1.04" rx="1.1" cy="170.87" cx="242.99"/><ellipse ry="1.04" rx="1.1" cy="171.99" cx="246.23"/><ellipse ry="1.04" rx="1.1" cy="171.99" cx="253.8"/><ellipse ry="1.04" rx="1.1" cy="170.87" cx="257.04"/><ellipse ry="1.04" rx="1.1" cy="170.28" cx="260.54"/><ellipse ry="1.04" rx="1.1" cy="170.23" cx="263.9"/><ellipse ry="1.04" rx="1.1" cy="170.82" cx="267.34"/><ellipse ry="1.04" rx="1.1" cy="171.81" cx="270.64"/><ellipse ry="1.04" rx="1.1" cy="173.47" cx="273.64"/><ellipse ry="1.04" rx="1.1" cy="175.48" cx="276.19"/><ellipse ry="1.04" rx="1.1" cy="178.37" cx="277.88"/><ellipse ry="1.04" rx="1.1" cy="181.57" cx="278.57"/><ellipse ry="1.04" rx="1.1" cy="184.75" cx="278.69"/><ellipse ry="1.04" rx="1.1" cy="187.65" cx="277.69"/><ellipse ry="1.04" rx="1.1" cy="190.32" cx="275.83"/><ellipse ry="1.04" rx="1.1" cy="175.48" cx="279.57"/><ellipse ry="1.04" rx="1.1" cy="175.36" cx="282.94"/><ellipse ry="1.04" rx="1.1" cy="175.54" cx="286.38"/><ellipse ry="1.04" rx="1.1" cy="176.19" cx="290"/><ellipse ry="1.04" rx="1.1" cy="177.36" cx="293.24"/><ellipse ry="1.04" rx="1.1" cy="179.01" cx="296.36"/><ellipse ry="1.04" rx="1.1" cy="181.02" cx="298.97"/><ellipse ry="1.04" rx="1.1" cy="183.45" cx="301.22"/><ellipse ry="1.04" rx="1.1" cy="186.4" cx="302.91"/><ellipse ry="1.04" rx="1.1" cy="189.64" cx="303.72"/><ellipse ry="1.04" rx="1.1" cy="192.94" cx="303.6"/><ellipse ry="1.04" rx="1.1" cy="196.02" cx="302.6"/><ellipse ry="1.04" rx="1.1" cy="198.67" cx="301.1"/></g><g style="fill:#c8b100" transform="scale(.85333 .96)"><path d="M250.15 226.18c-12.26-.02-23.25-1.47-31.09-3.83-.57-.18-.87-.7-.84-1.25-.01-.52.29-1 .84-1.17 7.84-2.36 18.83-3.81 31.09-3.83 12.27.02 23.25 1.47 31.09 3.83.55.17.84.65.83 1.17.03.55-.27 1.07-.83 1.25-7.84 2.36-18.82 3.81-31.09 3.83"/><path d="M250.07 216.09c-12.41.03-23.55 1.58-31.39 4 .65-.31.59-1.12-.22-3.2-.98-2.53-2.5-2.42-2.5-2.42 8.66-2.56 20.73-4.16 34.16-4.18 13.44.02 25.6 1.62 34.27 4.18 0 0-1.53-.11-2.51 2.42-.81 2.08-.87 2.89-.21 3.2-7.84-2.42-19.19-3.97-31.6-4"/><path d="M250.12 210.3c-13.43.02-25.5 1.62-34.16 4.18-.58.17-1.19-.05-1.38-.6-.19-.55.12-1.18.7-1.35 8.71-2.67 21.08-4.35 34.84-4.38 13.77.03 26.19 1.71 34.9 4.38.58.17.89.8.7 1.35-.19.55-.8.77-1.38.6-8.67-2.56-20.78-4.16-34.22-4.18"/><path d="m250.2 199.78 1.23.22c-.19.5-.24 1.05-.24 1.63 0 2.57 2.21 4.65 4.92 4.65 2.18 0 4.04-1.35 4.67-3.21.08.05.47-1.68.68-1.66.17.02.15 1.8.22 1.77.31 2.34 2.46 3.93 4.87 3.93 2.71 0 4.91-2.08 4.91-4.65 0-.19-.01-.38-.04-.57l1.54-1.52.83 1.94c-.33.61-.46 1.3-.46 2.03 0 2.46 2.1 4.44 4.69 4.44 1.63 0 3.06-.78 3.9-1.97l.99-1.25-.01 1.53c0 1.55.66 2.93 2.16 3.18 0 0 1.73.1 4.03-1.7 2.29-1.8 3.55-3.29 3.55-3.29l.2 1.8s-1.9 2.95-3.97 4.15c-1.14.66-2.86 1.35-4.23 1.13-1.44-.24-2.48-1.4-3.01-2.74-1.03.61-2.25.97-3.55.97-2.81 0-5.33-1.54-6.32-3.86-1.29 1.4-3.09 2.25-5.2 2.25-2.24 0-4.29-1.01-5.57-2.56a7.198 7.198 0 0 1-4.88 1.87c-2.48 0-4.69-1.22-5.94-3.05-1.25 1.83-3.46 3.05-5.94 3.05-1.89 0-3.61-.71-4.87-1.87-1.28 1.55-3.34 2.56-5.58 2.56-2.11 0-3.9-.85-5.19-2.25-1 2.32-3.52 3.86-6.32 3.86-1.31 0-2.52-.36-3.55-.97-.54 1.34-1.57 2.5-3.02 2.74-1.36.22-3.08-.47-4.22-1.13-2.08-1.2-3.98-4.15-3.98-4.15l.2-1.8s1.27 1.49 3.56 3.29c2.29 1.81 4.02 1.7 4.02 1.7 1.51-.25 2.16-1.63 2.16-3.18l-.01-1.53.99 1.25c.84 1.19 2.28 1.97 3.9 1.97 2.59 0 4.69-1.98 4.69-4.44 0-.73-.13-1.42-.46-2.03l.83-1.94 1.54 1.52c-.02.19-.04.38-.04.57 0 2.57 2.2 4.65 4.91 4.65 2.42 0 4.56-1.59 4.88-3.93.06.03.05-1.75.22-1.77.2-.02.6 1.71.67 1.66.64 1.86 2.49 3.21 4.68 3.21 2.71 0 4.91-2.08 4.91-4.65 0-.58-.03-1.13-.24-1.63l1.29-.22"/><path d="M208.37 206.32a2.24 2.24 0 0 0-.72-1.06c-.79-.68-1.84-.79-2.36-.25-.07.07-.13.17-.17.25 0 0-1.11-2.08-2.41-2.78-1.29-.7-3.49-.52-3.49-.52 0-1.6 1.3-2.89 2.99-2.89.99 0 1.92.41 2.48 1.11l.23-1.07s1.36.27 1.98 1.82c.62 1.55-.06 3.8-.06 3.8s.34-.96.85-1.61c.51-.64 1.81-1.34 2.49-1.66.67-.31 1.37-.79 1.37-.79s.03.18.05.61c.03.51-.01.83-.01.83 1.24-.17 2.69.04 3.83.48-.49.95-1.41 1.84-2.62 2.3 0 0 .44.36.83.75.34.34.44.49.44.49s-.85.13-1.27.19c-.43.05-1.84.28-2.69.22-.62-.04-1.32-.14-1.74-.22"/><path d="M205.29 205.01c.52-.54 1.57-.43 2.36.25.8.67 1.02 1.66.51 2.19-.51.54-1.57.42-2.36-.25-.79-.68-1.02-1.66-.51-2.19" style="fill:#ad1519"/><path d="M216.39 205.91c-.28-.83-.03-1.65.57-1.83.6-.19 1.32.33 1.6 1.16.28.83.03 1.65-.57 1.84-.6.18-1.31-.34-1.6-1.17" style="fill:#fff"/><path d="M226.12 201.86c-.33-.27-.59-.64-.67-1.08-.08-.44.01-.87.23-1.23 0 0-.88-.44-1.83-.69-.72-.19-1.99-.2-2.37-.2-.38-.02-1.15-.03-1.15-.03s.07.17.28.55c.27.46.5.75.5.75-1.27.29-2.35 1.12-3.03 2.09.99.68 2.3 1.1 3.6.97 0 0-.12.34-.2.86-.06.43-.06.61-.06.61s.71-.26 1.07-.39c.35-.13 1.54-.55 2.15-.96.8-.54 1.48-1.25 1.48-1.25"/><path d="M225.68 191.65c1.06.67 1.98 1.79 2.3 3.03 0 0 .13-.25.71-.59.59-.33 1.09-.32 1.09-.32s-.17.97-.25 1.32c-.09.34-.09 1.38-.32 2.32-.23.93-.63 1.68-.63 1.68-.42-.34-.99-.51-1.58-.41-.58.1-1.06.44-1.32.9 0 0-.66-.58-1.21-1.38-.55-.81-.93-1.78-1.13-2.08-.21-.3-.72-1.15-.72-1.15s.47-.18 1.14-.05c.67.12.88.32.88.32-.14-1.28.28-2.62 1.04-3.59"/><path d="M228.97 201.38a1.727 1.727 0 0 0-.42-2.3s.67-.71 1.47-1.26c.6-.41 1.8-.82 2.15-.95a95 95 0 0 0 1.07-.4s0 .18-.06.61c-.08.52-.2.87-.2.87 1.3-.14 2.62.29 3.61.98-.69.97-1.77 1.79-3.04 2.08 0 0 .23.28.5.74.21.39.28.56.28.56l-1.15-.03c-.38 0-1.65-.01-2.37-.2-.95-.25-1.84-.69-1.84-.69"/><ellipse ry="2.06" rx="2.17" cy="200.45" cx="227.37" style="fill:#ad1519"/><path d="M237.76 201.77c-.11-.87.31-1.63.93-1.7.63-.07 1.23.57 1.34 1.44.11.86-.3 1.63-.93 1.7-.62.07-1.22-.57-1.34-1.44" style="fill:#fff"/><path d="M248.5 199.83c-.32-.36-.53-.82-.53-1.33 0-.5.19-.97.51-1.32 0 0-.89-.67-1.89-1.12-.77-.35-2.18-.59-2.6-.67l-1.28-.24s.04.2.2.67c.2.56.4.93.4.93-1.47.08-2.85.81-3.81 1.76.96.94 2.34 1.66 3.81 1.75 0 0-.2.36-.4.93-.16.46-.2.67-.2.67l1.28-.24c.42-.08 1.83-.32 2.6-.67 1-.46 1.91-1.11 1.91-1.11"/><path d="M250.11 188.36c1.05.95 1.85 2.36 1.95 3.82 0 0 .19-.27.91-.53.73-.26 1.28-.16 1.28-.16s-.39 1.05-.55 1.42c-.17.37-.39 1.53-.84 2.53-.44 1-1.05 1.76-1.05 1.76-.4-.45-1-.75-1.67-.75-.68 0-1.27.3-1.67.75 0 0-.61-.76-1.05-1.76-.45-1-.67-2.16-.84-2.53-.17-.37-.56-1.42-.56-1.42s.56-.1 1.28.16.92.53.92.53c.1-1.46.86-2.87 1.89-3.82"/><path d="M251.76 199.83c.33-.36.53-.82.53-1.33 0-.5-.19-.97-.51-1.32 0 0 .89-.67 1.9-1.12.76-.35 2.17-.59 2.6-.67l1.26-.24s-.02.2-.19.67c-.2.56-.4.93-.4.93 1.47.08 2.86.81 3.81 1.76-.95.94-2.33 1.66-3.81 1.75 0 0 .2.36.4.93.16.46.19.67.19.67l-1.26-.24c-.43-.08-1.84-.32-2.6-.67-1.01-.46-1.92-1.11-1.92-1.11"/><ellipse ry="2.06" rx="2.17" cy="198.5" cx="250.14" style="fill:#ad1519"/><path d="M262.58 201.77c.11-.87-.3-1.63-.93-1.7-.63-.07-1.23.57-1.34 1.44-.11.86.31 1.63.93 1.7.63.07 1.23-.57 1.34-1.44" style="fill:#fff"/><path d="M271.38 201.38c-.22-.35-.32-.79-.25-1.23.09-.44.33-.81.67-1.07 0 0-.67-.71-1.47-1.26-.61-.41-1.8-.82-2.16-.95-.35-.13-1.06-.4-1.06-.4s-.01.18.06.61c.08.52.19.87.19.87-1.29-.14-2.61.29-3.6.98.68.97 1.77 1.79 3.03 2.08 0 0-.23.28-.49.74-.22.39-.28.56-.28.56l1.14-.03c.38 0 1.66-.01 2.37-.2.95-.25 1.84-.69 1.84-.69"/><path d="M274.67 191.65c-1.06.67-1.98 1.79-2.31 3.03 0 0-.12-.25-.71-.59-.58-.33-1.09-.32-1.09-.32s.17.97.26 1.32c.09.34.09 1.38.31 2.32.23.93.64 1.68.64 1.68.42-.34.99-.51 1.57-.41.59.1 1.06.44 1.33.9 0 0 .66-.58 1.21-1.38.54-.81.92-1.78 1.12-2.08.21-.3.72-1.15.72-1.15s-.47-.18-1.14-.05c-.67.12-.88.32-.88.32.15-1.28-.28-2.62-1.03-3.59"/><path d="M274.22 201.86c.34-.27.6-.64.67-1.08.09-.44 0-.87-.22-1.23 0 0 .88-.44 1.83-.69.72-.19 1.99-.2 2.36-.2.39-.02 1.15-.03 1.15-.03s-.06.17-.28.55c-.26.46-.49.75-.49.75 1.26.29 2.34 1.12 3.03 2.09-.99.68-2.31 1.1-3.6.97 0 0 .11.34.19.86.06.43.06.61.06.61s-.71-.26-1.06-.39c-.36-.13-1.55-.55-2.16-.96-.79-.54-1.48-1.25-1.48-1.25"/><ellipse ry="2.06" rx="2.17" cy="200.45" cx="272.98" style="fill:#ad1519"/><path d="M283.96 205.91c.28-.83.03-1.65-.57-1.83-.6-.19-1.32.33-1.61 1.16-.28.83-.03 1.65.57 1.84.6.18 1.32-.34 1.61-1.17" style="fill:#fff"/><path d="M291.97 206.32c.11-.37.36-.75.72-1.06.79-.68 1.85-.79 2.36-.25.07.07.14.17.18.25 0 0 1.1-2.08 2.4-2.78 1.3-.7 3.5-.52 3.5-.52 0-1.6-1.31-2.89-3-2.89-.99 0-1.92.41-2.47 1.11l-.23-1.07s-1.36.27-1.98 1.82c-.62 1.55.05 3.8.05 3.8s-.33-.96-.84-1.61c-.51-.64-1.81-1.34-2.49-1.66-.68-.31-1.37-.79-1.37-.79s-.03.18-.06.61c-.02.51.02.83.02.83-1.25-.17-2.7.04-3.83.48.48.95 1.4 1.84 2.61 2.3 0 0-.43.36-.83.75-.33.34-.43.49-.43.49s.85.13 1.27.19c.43.05 1.84.28 2.68.22.63-.04 1.32-.14 1.74-.22"/><path d="M295.05 205.01c-.51-.54-1.57-.43-2.36.25-.79.67-1.02 1.66-.51 2.19.51.54 1.57.42 2.36-.25.79-.68 1.02-1.66.51-2.19" style="fill:#ad1519"/></g><g style="fill:none"><path d="M250.12 224.57c-11.06-.01-21.07-1.29-28.68-3.26 7.61-1.97 17.62-3.17 28.68-3.19 11.07.02 21.13 1.22 28.74 3.19-7.61 1.97-17.67 3.25-28.74 3.26z" style="fill:#ad1519;stroke-linejoin:round" transform="scale(.85333 .96)"/><path d="M258.04 224.28v-6.01m-3.02 6.21.04-6.37m-2.24 6.45v-6.49" style="stroke-width:.05" transform="scale(.85333 .96)"/><path d="M250.95 224.64v-6.57" style="stroke-width:.09" transform="scale(.85333 .96)"/><path d="M249.16 224.64v-6.57" style="stroke-width:.14" transform="scale(.85333 .96)"/><path d="M247.48 224.64v-6.57" style="stroke-width:.18000001" transform="scale(.85333 .96)"/><path d="M245.81 224.64v-6.57" style="stroke-width:.23" transform="scale(.85333 .96)"/><path d="M244.32 224.64v-6.57" style="stroke-width:.28" transform="scale(.85333 .96)"/><path d="m241.48 224.28-.04-5.97m1.39 6.05v-6.25" style="stroke-width:.33000001" transform="scale(.85333 .96)"/><path d="M238.86 224.01v-5.5m1.33 5.66-.04-5.86" style="stroke-width:.37" transform="scale(.85333 .96)"/><path d="M235.35 223.7v-4.84m1.15 4.92v-5.08m1.19 5.24v-5.28" style="stroke-width:.41999999" transform="scale(.85333 .96)"/><path d="M234.12 223.66v-4.68" style="stroke-width:.46000001" transform="scale(.85333 .96)"/><path d="M232.97 223.42v-4.36" style="stroke-width:.50999999" transform="scale(.85333 .96)"/><path d="M231.74 223.31v-4.06" style="stroke-width:.56" transform="scale(.85333 .96)"/><path d="m229.22 222.95-.04-3.22m1.33 3.38v-3.62" style="stroke-width:.60000002" transform="scale(.85333 .96)"/><path d="M227.93 222.68v-2.84" style="stroke-width:.63" transform="scale(.85333 .96)"/><path d="M226.74 222.45v-2.36" style="stroke-width:.68000001" transform="scale(.85333 .96)"/><path d="M225.45 222.13v-1.85" style="stroke-width:.73000002" transform="scale(.85333 .96)"/><path d="M224.12 221.98v-1.38" style="stroke-width:.76999998" transform="scale(.85333 .96)"/><path d="M222.72 221.66v-.67" style="stroke-width:.91000003" transform="scale(.85333 .96)"/><path d="M187.836 212.794c6.613-2.093 15.607-3.38 25.6-3.399 10 .02 19.038 1.306 25.65 3.399"/><path d="m216.72 217.16 1.22-1.59 3.37.43-2.69 1.96-1.9-.8" style="fill:#ad1519" transform="scale(.85333 .96)"/><path d="M224.03 215.28c0-.58.49-1.04 1.1-1.04.61 0 1.1.46 1.1 1.04 0 .57-.49 1.04-1.1 1.04-.61 0-1.1-.47-1.1-1.04" style="fill:#fff" transform="scale(.85333 .96)"/><path d="m233.64 215.07-2.36.27c-.61.07-1.17-.33-1.24-.9-.08-.57.35-1.09.96-1.15l2.37-.28 2.42-.28c.6-.07 1.15.33 1.22.9.07.57-.36 1.09-.96 1.16l-2.41.28" style="fill:#058e6e" transform="scale(.85333 .96)"/><path d="M240.54 213.35c0-.58.49-1.04 1.1-1.04.6 0 1.1.46 1.1 1.04 0 .57-.5 1.04-1.1 1.04-.61 0-1.1-.47-1.1-1.04" style="fill:#fff" transform="scale(.85333 .96)"/><path d="M250.15 214.16h-3.29c-.6 0-1.11-.46-1.11-1.03 0-.58.49-1.04 1.1-1.04h6.64c.61 0 1.1.46 1.1 1.04 0 .57-.51 1.03-1.11 1.03h-3.33" style="fill:#ad1519" transform="scale(.85333 .96)"/><path d="M257.56 213.35c0-.58.5-1.04 1.1-1.04.61 0 1.1.46 1.1 1.04 0 .57-.49 1.04-1.1 1.04-.6 0-1.1-.47-1.1-1.04" style="fill:#fff" transform="scale(.85333 .96)"/><path d="m266.66 215.07 2.36.27c.6.07 1.17-.33 1.24-.9.07-.57-.36-1.09-.96-1.15l-2.37-.28-2.42-.28c-.61-.07-1.15.33-1.22.9-.08.57.36 1.09.96 1.16l2.41.28" style="fill:#058e6e" transform="scale(.85333 .96)"/><path d="M274.07 215.28c0-.58.49-1.04 1.1-1.04.61 0 1.1.46 1.1 1.04 0 .57-.49 1.04-1.1 1.04-.61 0-1.1-.47-1.1-1.04" style="fill:#fff" transform="scale(.85333 .96)"/><path d="m283.57 217.16-1.21-1.59-3.37.43 2.69 1.96 1.89-.8" style="fill:#ad1519" transform="scale(.85333 .96)"/></g><g style="stroke-width:.51999998"><path d="M250.49 344.33c-13.08 0-26.05-3.2-36.95-8.54-8.03-3.98-13.36-12-13.36-21.19v-33.3H300.6v33.3c0 9.19-5.32 17.21-13.36 21.19-10.9 5.34-23.66 8.54-36.75 8.54z" style="fill:#ccc" transform="scale(.85333 .96)"/><path d="M252.91 329.55c2.09.63 3.15 2.19 3.15 4.01 0 2.38-2.3 4.18-5.3 4.18-2.99 0-5.42-1.8-5.42-4.18 0-1.79 1-3.8 3.08-3.94 0 0-.06-.19-.24-.5-.22-.23-.64-.66-.64-.66s.79-.15 1.25.02c.46.18.77.47.77.47s.21-.43.52-.76c.3-.33.7-.53.7-.53s.46.38.61.64c.15.27.25.59.25.59s.42-.35.79-.49c.37-.15.84-.26.84-.26s-.13.46-.22.69c-.09.23-.14.72-.14.72" style="fill:#ffd691" transform="scale(.85333 .96)"/><path d="M250.32 340.32s-3.98-2.68-5.7-3.04c-2.21-.47-4.69-.09-5.76-.15.03.03 1.29.93 1.84 1.48.55.55 2.39 1.65 3.43 1.91 3.22.81 6.19-.2 6.19-.2M251.46 340.56s2.54-2.66 5.21-3.02c3.15-.44 5.22.26 6.44.58.03 0-1.01.49-1.56.87-.55.37-1.97 1.57-4.14 1.59-2.18.03-4.58-.23-4.97-.17-.4.06-.98.15-.98.15" style="fill:#058e6e" transform="scale(.85333 .96)"/><path d="M250.69 337.28c-1-.93-1.62-2.25-1.62-3.72 0-1.46.62-2.78 1.63-3.71a5.08 5.08 0 0 1-.01 7.43" style="fill:#ad1519" transform="scale(.85333 .96)"/><path d="M249.68 342.71s.61-1.52.67-2.83c.06-1.09-.15-2.17-.15-2.17h.8s.39 1.16.39 2.17c0 1.02-.18 2.37-.18 2.37s-.55.08-.73.17c-.19.09-.8.29-.8.29" style="fill:#058e6e" transform="scale(.85333 .96)"/><g style="fill:#c8b100"><path d="M250.32 314.57c0 13.16-11.16 23.82-25.05 23.82s-25.15-10.66-25.15-23.82v-33.35h50.2v33.35" style="fill:#ad1519" transform="scale(.85333 .96)"/><path d="M170.692 301.555c.128 6.74 2.518 11.76 4.89 15.043v-47.49h-4.83l-.06 32.447zM180.122 320.86c1.34.798 3.174 2.132 5.145 2.66l-.128-54.682h-5.017v52.023zM189.679 324.72c1.963.22 3.422.182 5.009 0v-55.882h-5.01v55.882zM199.1 323.52c1.962-.442 4.181-1.814 5.145-2.525v-52.157h-5.017l-.128 54.682zM208.905 316.07c2.09-2.092 4.053-6.835 4.77-12.25l.12-34.982h-5.01l.12 47.232z"/></g><g transform="scale(.85333 .96)"><path d="M300.65 281.22v33.35c0 13.16-11.28 23.82-25.17 23.82-13.9 0-25.16-10.66-25.16-23.82v-33.35h50.33" style="fill:#ad1519"/><path d="M272.71 306.14c.05-.14.12-.27.19-.4l-4.26-4.74-1.67.72-3.06-3.39 1-1.46-5.34-5.99c-.07.02-.2.02-.27.04l.03 4.02 1.75.5v4.46l-1.75.48-.03 4.08c.84.26 1.48.88 1.74 1.67l3.21.01.51-1.67h4.72l.5 1.67zm-6.98-18.5v1.61h2.76v-1.61zm-7.3 20.37c.64 0 1.16-.49 1.16-1.1 0-.61-.52-1.11-1.16-1.11-.65 0-1.17.5-1.17 1.11 0 .61.52 1.1 1.17 1.1zm15.99-9.73-1.76-.48v-4.46l1.76-.5-.01-1.92c-.85-.25-1.51-.87-1.79-1.67h-2.68l-.51 1.67h-4.71l-.51-1.67h-3.09c-.08.22-.17.42-.29.61l5.38 5.96 1.67-.71 3.06 3.4-1 1.45 4.18 4.64c.09-.04.18-.08.28-.12zm-7.25-1.39-1.29 1.04 1.77 1.98 1.29-1.05zm8.004 36.186c-1.24-.065-2.255-.902-2.514-2.016-1.67-.23-3.25-.66-4.73-1.3l.84-1.43c1.29.55 2.66.91 4.08 1.11.31-.66.86-1.16 1.58-1.4l.01-5.62-1.76-.49v-4.46l1.76-.48v-7.64a.882.882 0 0 1-.2-.09l-3.98 4.42 1 1.44-3.06 3.4-1.67-.71-3.3 3.67c.57.87.55 2-.11 2.85a15.58 15.58 0 0 0 3.24 2.75l-.84 1.44c-1.42-.89-2.7-1.99-3.79-3.22-.87.26-1.86.11-2.6-.5-1.15-.93-1.29-2.56-.3-3.64l.14-.16c-.69-1.56-1.16-3.24-1.32-5l1.71.01c.14 1.5.51 2.93 1.09 4.27.49-.06 1-.01 1.46.16l3.32-3.68-1-1.45 3.06-3.4 1.67.72 3.99-4.43a2.15 2.15 0 0 1-.21-.46l-2.76.01-.5 1.67h-4.72l-.51-1.67-3.24-.01c-.27.76-.9 1.36-1.69 1.62l-.01 4.04-1.71-.01v-4.01c-1.1-.33-1.91-1.31-1.91-2.47 0-1.15.82-2.15 1.92-2.48l.01-4.05-1.76-.48v-4.46l1.76-.5v-4.05c-1.08-.35-1.84-1.32-1.84-2.45 0-1.43 1.22-2.58 2.73-2.58 1.22 0 2.25.74 2.61 1.78h3.09l.51-1.67h4.71l.51 1.67h2.68c.357-1.031 1.363-1.767 2.559-1.78l.071 8.37h-.85v2.61h.845l-.021 21.59h-.784v2.61h.78zm-5.914-18.306-1.29-1.04-1.78 1.98 1.29 1.04zm-9.96-18.44h-1.69l-.01 2.61h1.7zm9.16 11.41v-1.6h-2.85v1.6zm-10.6 9.69-1.76-.39-.25-4.45 1.75-.58v2.56c0 .99.09 1.92.26 2.86zm1.46-5.52 1.75.41s.09 2.87.05 2.22c-.04-.74.19 2.24.19 2.24l-1.76.58c-.18-.9-.24-1.84-.24-2.79zm10.81 16.93.39-1.7c-1.52-.48-2.93-1.18-4.17-2.09l-1.26 1.11c1.48 1.15 3.19 2.08 5.04 2.68zm-.85 1.44-1.3 1.22c-1.47-.54-2.86-1.26-4.12-2.11l.38-1.77c1.5 1.13 3.21 2.03 5.04 2.66z" id="e" style="fill:#c8b100;stroke:#c8b100;stroke-width:.25999999"/><use transform="matrix(-1 0 0 1 550.43 0)" xlink:href="#e" width="100%" height="100%"/><path d="M272.59 306.94c0-1.44 1.23-2.6 2.74-2.6 1.51 0 2.73 1.16 2.73 2.6 0 1.43-1.22 2.58-2.73 2.58s-2.74-1.15-2.74-2.58" style="fill:#058e6e;stroke:none" stroke="none"/></g><g style="fill:#c8b100;stroke-width:.46000001"><path d="M200.12 281.25h50.18v-55.72h-50.18v55.72z" style="fill:#ad1519;stroke-width:.51999998" transform="scale(.85333 .96)"/><path d="M185.463 228.874h-.785v-.884h-1.382v3.543h1.382v2.448h-2.96v7.094h1.578v14.199h-3.157v7.324h24.251v-7.324h-3.148v-14.199h1.578v-7.094h-2.96v-2.448h1.382v-3.543h-1.383v.884h-.793v-.884h-1.374v.884h-.99v-.884h-1.383v3.543h1.383v2.448h-2.953v-7.767h1.57v-3.552h-1.57v.893h-.793v-.893h-1.383v.893h-.785v-.893h-1.578v3.552h1.578v7.767h-2.96v-2.448h1.382v-3.543h-1.383v.884h-.785v-.884h-1.579v.884zm-5.324 33.724h24.251m-24.251-1.776h24.251m-24.251-1.776h24.251m-24.251-1.776h24.251m-24.251-1.996h24.251m-21.094-1.556h17.946m-17.946-1.776h17.946m-17.946-1.996h17.946m-17.946-1.767h17.946m-17.946-1.776h17.946m-17.946-1.776h17.946m-17.946-1.776h17.946m-19.525-1.776h21.103m-21.103-1.776h21.103m-21.103-1.776h21.103m-21.103-1.766h21.103m-18.142-1.776h15.181m-9.07-1.776h2.96m-2.96-1.776h2.96m-2.96-1.776h2.96m-2.96-1.776h2.96m-4.54-2.218h6.11m-10.64 7.546h3.148m-4.531-2.218h5.914m-5.914 32.611v-1.776m0-1.776v-1.776m-1.579 1.776v1.776m2.961 0v-1.776m1.57 3.552v-1.776m0-1.776v-1.776m0-1.996v-1.556m0-1.776v-1.996m-1.57 7.324v-1.996m-2.96 1.996v-1.996m6.11 0v1.996m1.382-1.996v-1.556m-4.532-1.776v1.776m3.15-1.776v1.776m2.96-1.776v1.776m-1.578-1.776v-1.996m1.578-1.767v1.767m0-5.319v1.776m-1.578-3.552v1.776m1.578-3.552v1.776m-2.96-1.776v1.776m-3.15-1.776v1.776m-1.382-3.552v1.776m2.953-1.776v1.776m2.96-1.776v1.776m1.58-3.552v1.776m-2.962-1.776v1.776m-3.149-1.776v1.776m-1.382-3.542v1.766m5.914-1.766v1.766m-2.961-5.318v1.776m13.61-1.776h-3.157m4.54-2.218h-5.923m5.923 32.611v-1.776m0-1.776v-1.776m1.578 1.776v1.776m-2.96 0v-1.776m-1.58 3.552v-1.776m0-1.776v-1.776m0-1.996v-1.556m0-1.776v-1.996m1.58 7.324v-1.996m2.96 1.996v-1.996m-6.118 0v1.996m-1.383-1.996v-1.556m4.54-1.776v1.776m-3.157-1.776v1.776m-2.953-1.776v1.776m1.57-1.776v-1.996m-1.57-1.767v1.767m0-5.319v1.776m1.57-3.552v1.776m-1.57-3.552v1.776m2.953-1.776v1.776m3.157-1.776v1.776m1.383-3.552v1.776m-2.961-1.776v1.776m-2.962-1.776v1.776m-1.57-3.552v1.776m2.953-1.776v1.776m3.157-1.776v1.776m1.383-3.542v1.766m-5.923-1.766v1.766m2.962-5.318v1.776m-6.11 17.961v-1.996m0-5.319v-1.776m0 5.328v-1.776m0-5.328V239.3m0-1.776v-1.766m0-3.552v-1.776m0-1.776v-1.776m-7.493 4.656h3.15m2.96-5.319h2.961m2.953 5.319h3.157"/><path d="M196.31 262.598v-4.665c0-.883-.393-3.552-4.14-3.552-3.55 0-3.942 2.669-3.942 3.552v4.665h8.081z"/><path d="m189.602 258.154-1.971-.221c0-.883.196-2.218.794-2.66l1.774 1.556c-.196.22-.597.883-.597 1.325zM192.956 255.936l.99-1.997c-.393-.22-1.187-.441-1.775-.441-.393 0-1.186.22-1.579.441l.981 1.997h1.383zM194.927 258.154l1.971-.221c0-.883-.196-2.218-.785-2.66l-1.775 1.556c.196.22.589.883.589 1.325zM189.21 250.397v-4.887c0-1.324-.785-2.438-2.168-2.438-1.382 0-2.167 1.114-2.167 2.438v4.887h4.335zM195.32 250.397v-4.887c0-1.324.793-2.438 2.175-2.438 1.374 0 2.168 1.114 2.168 2.438v4.887h-4.344zM187.827 238.416l.196-4.435h-3.746l.401 4.435h3.15zM193.75 238.416l.392-4.435h-3.746l.196 4.435h3.157zM196.702 238.416l-.393-4.435h3.943l-.393 4.435h-3.157z"/><g style="fill:#0039f0;stroke:none"><path d="M194.927 262.598v-3.993c0-.672-.393-2.669-2.756-2.669-2.168 0-2.569 1.997-2.569 2.669v3.993h5.325zM188.817 249.946v-4.215c0-1.104-.589-2.217-1.775-2.217s-1.775 1.113-1.775 2.217v4.215h3.55zM195.72 249.946v-4.215c0-1.104.59-2.217 1.775-2.217 1.178 0 1.775 1.113 1.775 2.217v4.215h-3.55z"/></g></g><g><path d="M250.28 281.25h50.32v-55.72h-50.32v55.72z" style="fill:#ccc" transform="scale(.85333 .96)"/><path d="m275.93 239.26.05-.62.09-.34s-1.61.13-2.46-.11c-.85-.24-1.61-.59-2.4-1.25-.79-.68-1.1-1.1-1.67-1.18-1.36-.22-2.4.4-2.4.4s1.02.37 1.78 1.31c.76.94 1.59 1.41 1.95 1.53.59.18 2.66.05 3.22.07.57.03 1.84.19 1.84.19z" style="fill:#db4446;stroke-width:.38999999" transform="scale(.85333 .96)"/><g style="fill:none;stroke-width:.38999999"><path d="M283.46 237s.01.72.08 1.4c.06.67-.22 1.24-.11 1.61.11.37.16.66.3.93.14.26.21.94.21.94s-.38-.28-.74-.54c-.35-.27-.6-.44-.6-.44l.1 1.03c.04.31.22.89.51 1.24.29.33.87.89 1.05 1.33.18.45.14 1.44.14 1.44s-.46-.75-.87-.89c-.39-.14-1.26-.62-1.26-.62s.79.79.79 1.55c0 .75-.32 1.6-.32 1.6s-.36-.68-.83-1.12c-.47-.45-1.13-.9-1.13-.9s.52 1.17.52 1.95c0 .79-.15 2.47-.15 2.47s-.39-.64-.79-.96c-.4-.31-.87-.58-1.02-.78-.14-.21.48.64.54 1.16.07.51.32 2.35 1.92 4.69.94 1.37 2.39 3.77 5.5 2.98 3.11-.78 1.96-4.97 1.3-6.92-.65-1.95-.98-4.11-.94-4.87.04-.75.58-2.97.51-3.39-.07-.41-.24-2 .14-3.28.4-1.33.73-1.85.95-2.4.21-.55.39-.86.46-1.34.07-.48.07-1.37.07-1.37s.58 1.06.73 1.44c.14.38.14 1.5.14 1.5s.11-1.12.98-1.67c.87-.55 1.88-1.13 2.13-1.44.25-.31.33-.51.33-.51s-.08 1.92-.62 2.67c-.36.49-1.77 2.09-1.77 2.09s.73-.28 1.23-.3c.51-.04.87 0 .87 0s-.62.48-1.41 1.64c-.8 1.16-.47 1.26-1.05 2.22-.58.96-1.05 1-1.78 1.58-1.08.87-.5 4.34-.36 4.86.15.51 2.03 4.76 2.07 5.79.03 1.03.21 3.33-1.6 4.8-1.16.95-3.07.96-3.51 1.23-.43.28-1.29 1.13-1.29 2.91 0 1.79.64 2.06 1.15 2.51.51.44 1.16.2 1.3.55.15.34.22.54.44.75.21.2.36.44.29.82-.08.38-.91 1.23-1.2 1.85-.29.61-.87 2.23-.87 2.47 0 .24-.07.99.18 1.37 0 0 .91 1.06.29 1.26-.4.14-.78-.25-.97-.2-.54.14-.83.47-.98.45-.36-.07-.36-.25-.4-.76-.03-.51-.01-.72-.17-.72-.22 0-.33.18-.37.45-.04.27-.04.89-.29.89-.25 0-.61-.45-.83-.55-.22-.1-.83-.2-.87-.48-.03-.27.36-.85.76-.96.4-.1.76-.3.51-.51-.26-.2-.51-.2-.76 0-.25.21-.79.04-.76-.27.04-.31.11-.69.07-.86-.03-.17-.47-.51.1-.82.59-.31.84.27 1.42.17s.86-.31 1.08-.65c.22-.34.18-1.06-.22-1.5-.39-.45-.79-.52-.94-.8-.14-.27-.36-.92-.36-.92s.11 1.2.04 1.37c-.07.17-.04.89-.04.89s-.39-.45-.72-.79c-.32-.34-.65-1.37-.65-1.37s-.03.96-.03 1.34c0 .37.43.72.29.86-.15.13-.83-.72-1.02-.86-.18-.14-.76-.58-1.01-1.06-.25-.48-.44-1.16-.51-1.41-.07-.24-.19-1.31-.07-1.58.18-.4.47-1.13.47-1.13h-1.41c-.76 0-1.3-.23-1.59.28-.29.51-.15 1.54.21 2.88.37 1.33.58 1.98.48 2.22-.11.24-.58.79-.76.89-.19.11-.69.07-.91-.03-.21-.1-.57-.27-1.26-.27-.69 0-1.12.03-1.37-.03-.26-.07-.88-.38-1.17-.31-.29.07-.79.32-.65.72.22.61-.21.75-.51.72-.29-.04-.53-.14-.9-.24-.36-.11-.9 0-.83-.42.07-.41.22-.44.4-.74.18-.32.25-.52.04-.54-.25-.02-.51-.05-.7.11-.2.16-.51.51-.76.38-.26-.14-.46-.43-.46-1.08 0-.64-.68-1.2-.05-1.17.62.03 1.41.48 1.55.13.14-.35.06-.51-.28-.78s-.76-.43-.31-.77c.45-.35.56-.35.74-.54.17-.18.41-.79.73-.64.62.3.02.73.65 1.42.62.69 1.01.94 2.06.83 1.04-.11 1.33-.24 1.33-.54 0-.29-.09-.82-.12-1.04-.02-.21.15-.99.15-.99s-.48.3-.63.59c-.13.29-.42.8-.42.8s-.11-.6-.08-1.09c.02-.29.12-.79.11-.89-.03-.27-.23-.94-.23-.94s-.16.73-.28.94c-.11.21-.16 1.07-.16 1.07s-.67-.58-.48-1.55c.13-.75-.12-1.74.11-2.06.22-.33.75-1.64 2.06-1.69 1.3-.05 2.31.05 2.77.03.45-.03 2.06-.33 2.06-.33s-2.97-1.52-3.64-1.98c-.68-.45-1.73-1.63-2.07-2.16-.34-.54-.65-1.58-.65-1.58s-.53.02-1.02.29c-.48.27-.96.67-1.24.99-.28.32-.73 1.05-.73 1.05s.08-.94.08-1.23c0-.29-.06-.86-.06-.86s-.33 1.28-1.01 1.76c-.68.49-1.47 1.15-1.47 1.15s.08-.71.08-.88c0-.16.17-.99.17-.99s-.48.72-1.21.86c-.74.13-1.81.11-1.9.56-.08.45.2 1.07.03 1.39-.17.32-.54.54-.54.54s-.42-.35-.79-.38c-.36-.03-.71.16-.71.16s-.31-.4-.19-.67c.11-.26.67-.66.54-.83-.15-.16-.6.06-.88.19-.28.14-.88.27-.82-.19.05-.45.2-.72.05-1.04-.14-.32-.05-.53.18-.61.22-.08 1.12.02 1.21-.19.08-.21-.22-.48-.82-.61-.59-.14-.88-.49-.57-.78.32-.3.4-.38.54-.64.14-.27.2-.76.74-.51.53.24.42.83.99 1.01.56.19 1.89-.08 2.17-.24.28-.16 1.19-.83 1.5-.99.31-.15 1.61-1.12 1.61-1.12s-.76-.53-1.05-.8c-.28-.27-.78-.91-1.04-1.05-.25-.13-1.5-.61-1.92-.64-.42-.02-1.72-.48-1.72-.48s.59-.19.79-.35c.19-.16.64-.56.87-.53.22.02.28.02.28.02s-1.21-.05-1.47-.13c-.25-.08-.99-.54-1.27-.54s-.84.11-.84.11.76-.48 1.38-.59c.62-.1 1.1-.08 1.1-.08s-.96-.27-1.19-.58c-.22-.33-.45-.8-.62-1.02-.17-.21-.28-.56-.59-.59-.31-.03-.85.38-1.16.35-.31-.03-.54-.22-.57-.67-.02-.46 0-.3-.1-.54-.12-.24-.57-.8-.15-.93.43-.14 1.33.08 1.42-.08.08-.16-.48-.65-.85-.83-.37-.19-.96-.51-.65-.78.31-.26.62-.37.79-.61.17-.24.37-.91.74-.7.36.21.87 1.26 1.16 1.18.28-.08.3-.83.25-1.15-.06-.32 0-.88.28-.83.28.05.51.43.96.46.45.02 1.13-.11 1.07.21-.05.32-.31.71-.62 1.06-.3.36-.45 1.05-.25 1.5.2.46.71 1.19 1.16 1.48.45.29 1.3.51 1.84.85.53.35 1.78 1.34 2.2 1.45.42.11.85.32.85.32s.48-.21 1.13-.21c.65 0 2.14.1 2.71-.14.57-.24 1.3-.64 1.08-1.15-.23-.51-1.47-.96-1.36-1.36.11-.4.57-.43 1.33-.46.76-.02 1.8.14 2-.94.2-1.06.26-1.68-.81-1.92-1.08-.24-1.87-.27-2.07-1.04-.2-.78-.39-.97-.17-1.18.23-.21.62-.32 1.41-.37.8-.06 1.7-.06 1.96-.25.25-.18.3-.69.61-.91.31-.21 1.53-.4 1.53-.4s1.46.71 2.8 1.71c1.21.9 2.3 2.23 2.3 2.23" style="fill:#ed72aa" transform="scale(.85333 .96)"/><path d="M229.547 233.654s-.683.221-.939.644c-.316.508-.29 1.027-.29 1.027s.58-.538 1.331-.317c.742.23.82.317 1.135.288.316-.029 1.084-.336 1.084-.336s-.632.826-.555 1.392c.068.557.162.816.145 1.104-.051.691-.512 1.546-.512 1.546s.265-.183.896-.336a3.752 3.752 0 0 0 1.493-.778c.333-.278.768-.98.768-.98s-.136.96 0 1.364c.146.422.197 1.603.197 1.603s.4-.403.725-.595c.162-.106.597-.365.768-.672.12-.211.273-1.018.273-1.018s.094.864.333 1.287c.239.403.597 1.67.597 1.67s.248-.825.512-1.161c.265-.336.58-.768.598-1.028.025-.259-.069-.816-.069-.816l.333.816m-9.736.586s.41-.797.793-1.056c.393-.25.922-.71 1.067-.768.136-.048.768-.442.768-.442m.845 4.964s.93-.528 1.203-.72c.58-.384.99-1.076.99-1.076"/><path d="M282.57 240.9s-.34-.48-.42-.65c-.09-.15-.23-.48-.23-.48" style="fill:none;stroke-width:.25999999" transform="scale(.85333 .96)"/><path d="M278.33 257.41s2.04 1.26 1.98 2.31c-.06 1.04-1.13 2.41-1.13 2.41" style="fill:none" transform="scale(.85333 .96)"/></g><path d="M273.05 236.24s-.17-.48-.2-.62a1.35 1.35 0 0 0-.12-.29s.88 0 .85.27c-.02.27-.28.27-.34.37-.05.11-.19.27-.19.27z" style="fill:#000;stroke-width:.25999999" transform="scale(.85333 .96)"/><path d="m277.06 234.85-.06-.43s.77 0 1.13.26c.57.4.93 1.02.91 1.05-.1.09-.54-.27-.85-.37 0 0-.23.05-.45.05-.23 0-.34-.11-.37-.21-.03-.12.03-.3.03-.3l-.34-.05z" style="fill:#000;stroke-width:.05" transform="scale(.85333 .96)"/><g style="fill:#000;stroke-width:.25999999"><path d="m233.028 230.534.282-.508.29.47-.572.038M233.72 230.515l.34-.509.368.461-.709.048M233.412 227.357l.7.278-.631.365-.069-.643M234.257 227.616l.623.173-.503.441-.12-.614"/></g><g style="fill:#db4446;stroke-width:.38999999"><path d="M223.47 226.637s.41.326.726.384c.316.048.649.048.7.048.043 0 .145-.519.094-.874-.17-1.152-1.11-1.411-1.11-1.411s.282.7.146 1.027c-.197.461-.555.826-.555.826zM221.517 227.635s-.367-.739-1.135-.643c-.768.106-1.28.778-1.28.778s.853-.03 1.067.124c.315.23.41.826.41.826s.46-.307.605-.518c.137-.202.333-.567.333-.567zM220.578 230.64s-.657.106-1.015.566c-.367.47-.308 1.344-.308 1.344s.427-.518.811-.518c.393 0 .99.154.99.154s-.188-.538-.188-.768c0-.23-.29-.778-.29-.778zM222.771 240.355s-.358-.432-.99-.307c-.631.134-1.04.931-1.04.931s.537-.163.853-.077c.307.077.529.432.529.432s.29-.278.384-.432c.094-.153.264-.547.264-.547zM222.046 243.206s-.53-.096-.99.317c-.452.413-.478 1.2-.478 1.2s.435-.413.777-.355c.332.048.742.26.742.26s.068-.49.094-.615c.077-.365-.145-.807-.145-.807zM223.283 245.837s-.042.758.282 1.229c.341.49.964.566.964.566s-.205-.509-.239-.768c-.051-.384.29-.72.29-.72s-.315-.365-.623-.365c-.315 0-.674.058-.674.058zM229.547 252.595s-.436-.614-1.033-.595c-.606.029-1.237.662-1.237.662s.75-.067.947.212c.196.288.384.643.384.643s.341-.202.486-.336c.145-.125.453-.586.453-.586zM227.695 255.293s-.794-.135-1.186.336c-.384.46-.359 1.305-.359 1.305s.478-.585.913-.537c.436.048.922.307.922.307s-.077-.509-.128-.749c-.043-.23-.162-.662-.162-.662zM229.41 258.144s-.392.614-.102 1.104c.29.49.896.72.896.72s-.222-.355-.12-.768c.077-.326.572-.768.572-.768l-1.246-.288zM239.991 259.306s-.69-.183-1.083.076c-.384.25-.7 1.335-.7 1.335s.631-.595 1.092-.519c.453.077.794.288.794.288s.068-.441.017-.748c-.026-.183-.12-.432-.12-.432zM240.333 262.176s-.53.614-.342 1.133c.197.518.53 1.056.53 1.056s-.018-.768.196-.98c.316-.307.896-.355.896-.355s-.461-.46-.606-.518c-.145-.048-.674-.336-.674-.336zM242.987 263.078s-.265.75.239 1.23c.503.498.947.546.947.546s-.393-.777-.273-1.18c.128-.432.46-.692.46-.692s-.63-.24-.725-.21c-.094.018-.648.306-.648.306z"/></g><g style="fill:#c8b100;stroke-width:.25999999"><path d="m241.39 223.402-.247.019c-.008.029-.119.23-.221.336-.222.24-.555.269-.734.067a.503.503 0 0 1-.12-.394.38.38 0 0 1-.435-.01c-.222-.143-.273-.48-.12-.758.026-.057.052-.134.094-.172l-.017-.308-.298.077-.086.183c-.187.24-.46.297-.597.163a.536.536 0 0 1-.11-.26c0 .01-.078.087-.146.106-.46.125-.64-1.008-.657-1.296l-.145.24s.136.672.068 1.248c-.068.567-.247 1.143-.247 1.143.631.182 1.587.768 2.534 1.584.947.816 1.69 1.708 1.997 2.323 0 0 .495-.307 1.007-.49.512-.182 1.16-.192 1.16-.192l.188-.201c-.273.048-1.348.096-1.331-.413 0-.077.06-.173.068-.173a.537.537 0 0 1-.256-.058c-.153-.124-.153-.412.017-.662l.154-.125.008-.326-.29.048c-.025.038-.094.086-.128.125-.23.22-.554.24-.734.028a.434.434 0 0 1-.093-.441.447.447 0 0 1-.384-.048c-.222-.144-.265-.5-.094-.768.076-.135.239-.298.264-.307l-.06-.288h-.008z"/><g style="fill:#000;stroke-width:.05"><path d="M239.47 224.064c.044-.067.129-.058.197 0s.086.154.051.202c-.042.057-.128.057-.204-.01-.06-.048-.086-.144-.043-.192zM240.282 224.822l-.282-.24c-.051-.038-.06-.115-.034-.153.034-.039.102-.039.153 0l.282.25.282.24c.042.038.068.115.034.153-.034.038-.103.038-.154 0l-.281-.25M238.797 223.68l-.222-.144c-.06-.038-.085-.115-.06-.163.026-.048.094-.058.145-.02l.222.154.222.144c.051.029.077.106.06.154-.026.048-.094.057-.145.019l-.222-.144M237.91 222.998c.042-.057.136-.057.204 0 .068.068.085.154.043.212-.043.048-.128.048-.196-.01-.069-.058-.086-.144-.052-.202zM241.178 225.523c.042-.048.025-.134-.043-.201-.068-.058-.162-.058-.205 0-.034.048-.017.144.051.201.069.058.154.058.197 0zM241.664 226.157l.188.201c.042.048.11.068.153.03.034-.04.034-.106-.008-.154l-.18-.202-.187-.202c-.043-.048-.12-.067-.154-.028-.042.028-.034.105.009.153l.179.202M242.475 226.934c.042-.057.025-.144-.043-.201-.068-.067-.154-.067-.196-.01-.043.058-.026.144.042.211.069.048.154.058.197 0z"/></g><path d="m240.128 221.146-.503.01-.094.834.05.135.129-.01.648-.49-.23-.48"/><path d="m240.128 221.146-.503.01-.094.834.05.135.129-.01.648-.49-.23-.48"/><path d="m238.763 221.606-.017.519.785.115.128-.067-.017-.144-.453-.682-.426.26"/><path d="m240.384 222.643-.418.26-.46-.682-.01-.144.12-.058.794.106-.026.518"/><path d="M239.369 222a.23.23 0 0 1 .332-.086c.12.067.154.23.086.355a.23.23 0 0 1-.333.086.266.266 0 0 1-.085-.355zM237.534 221.136c-.017.01-.111-.442-.222-.682-.068-.182-.333-.412-.333-.412.026-.048.359-.183.743.086.324.298-.026.835-.026.835s-.077.135-.162.173z"/><path d="m238.413 221.434-.359.355-.58-.576.051-.077.026-.144.785-.067.077.509"/><path d="M237.431 221.078c.043-.144.154-.22.24-.192.093.039.127.173.085.317-.043.144-.154.221-.248.192-.094-.038-.128-.173-.077-.317zM242.065 222.5l-.503-.058-.214.816.043.134.128.01.708-.394-.162-.509"/><path d="m240.649 222.749-.086.518.768.221.128-.038.009-.135-.367-.758-.452.192"/><path d="m242.116 224.026-.452.192-.358-.75.008-.143.128-.029.76.22-.086.51"/><path d="M241.195 223.238a.232.232 0 0 1 .341-.038c.11.086.128.25.043.365-.086.115-.24.125-.35.038a.271.271 0 0 1-.034-.365zM243.746 224.266l.094.528-.742.288-.137-.039-.008-.134.307-.778.486.135"/><path d="m243.618 225.792-.478.125-.264-.797.034-.144.128-.02.725.337-.145.499"/><path d="m242.321 224.314-.154.499.726.326.136-.019.026-.134-.256-.797-.478.125"/><path d="M243.123 225.245a.285.285 0 0 0 .017-.375.249.249 0 0 0-.35-.019.284.284 0 0 0-.008.375.23.23 0 0 0 .341.019zM244.3 226.973c0 .01.427.029.675.086.17.039.444.26.444.26.05-.039.102-.404-.24-.759-.332-.269-.75.211-.75.211s-.103.115-.128.202z"/><path d="m243.84 226.118-.247.442.648.49.077-.077.11-.039-.102-.844-.486.028"/><path d="M244.37 227.069c.119-.067.178-.211.127-.298-.051-.086-.188-.096-.307-.019-.12.077-.17.211-.12.298.043.086.18.096.3.019z"/></g></g><g style="stroke-width:.61000001" transform="scale(.85333 .96)"><ellipse ry="18.3" rx="16.26" cy="281.01" cx="250.43" style="fill:#ad1519"/><ellipse ry="13.42" rx="11.44" cy="280.97" cx="250.44" style="fill:#005bbf"/><g id="f" style="fill:#c8b100;stroke-width:.34"><path d="M245.03 271.74s-1.35 1.48-1.35 2.86c0 1.39.57 2.54.57 2.54-.21-.55-.76-.94-1.41-.94-.83 0-1.5.63-1.5 1.42 0 .22.14.58.24.77l.49.99c.16-.37.54-.57.98-.57.59 0 1.08.45 1.08 1.01 0 .09-.01.17-.04.25l-1.22.01v1.03h1.09l-.81 1.61 1.07-.42.81.91.84-.91 1.07.42-.8-1.61h1.08v-1.03l-1.22-.01c-.02-.08-.02-.16-.02-.25 0-.56.47-1.01 1.06-1.01.44 0 .82.2.98.57l.49-.99c.1-.19.24-.55.24-.77 0-.79-.67-1.42-1.49-1.42-.66 0-1.21.39-1.41.94 0 0 .57-1.15.57-2.54 0-1.38-1.39-2.86-1.39-2.86z" style="stroke-linejoin:round"/><path d="M242.87 281.11h4.36v-1.03h-4.36v1.03z"/></g><use x="10.63" xlink:href="#f" width="100%" height="100%"/><use y="9.14" x="5.31" xlink:href="#f" width="100%" height="100%"/></g></g></g></svg>